HIERARCHY
ROOT Hips
{
	OFFSET -0.001795 -0.223333 0.028219
	CHANNELS 6 Xposition Yposition Zposition Zrotation Yrotation Xrotation 
	JOINT LeftUpLeg
	{
		OFFSET 0.069520 -0.091406 -0.006815
		CHANNELS 3 Zrotation Yrotation Xrotation
		JOINT LeftLeg
		{
			OFFSET 0.034277 -0.375199 -0.004496
			CHANNELS 3 Zrotation Yrotation Xrotation
			JOINT LeftFoot
			{
				OFFSET -0.013596 -0.397961 -0.043693
				CHANNELS 3 Zrotation Yrotation Xrotation
				JOINT LeftToe
				{
					OFFSET 0.026358 -0.055791 0.119288
					CHANNELS 3 Zrotation Yrotation Xrotation
					End Site
					{
						OFFSET 0.000000 0.000000 0.000000
					}
				}
			}
		}
	}
	JOINT RightUpLeg
	{
		OFFSET -0.067670 -0.090522 -0.004320
		CHANNELS 3 Zrotation Yrotation Xrotation
		JOINT RightLeg
		{
			OFFSET -0.038290 -0.382569 -0.008850
			CHANNELS 3 Zrotation Yrotation Xrotation
			JOINT RightFoot
			{
				OFFSET 0.015774 -0.398415 -0.042312
				CHANNELS 3 Zrotation Yrotation Xrotation
				JOINT RightToe
				{
					OFFSET -0.025372 -0.048144 0.123348
					CHANNELS 3 Zrotation Yrotation Xrotation
					End Site
					{
						OFFSET 0.000000 0.000000 0.000000
					}
				}
			}
		}
	}
	JOINT Spine
	{
		OFFSET -0.002533 0.108963 -0.026696
		CHANNELS 3 Zrotation Yrotation Xrotation
		JOINT Spine1
		{
			OFFSET 0.005487 0.135180 0.001092
			CHANNELS 3 Zrotation Yrotation Xrotation
			JOINT Spine2
			{
				OFFSET 0.001457 0.052922 0.025425
				CHANNELS 3 Zrotation Yrotation Xrotation
				JOINT Neck
				{
					OFFSET -0.002778 0.213870 -0.042857
					CHANNELS 3 Zrotation Yrotation Xrotation
					JOINT Head
					{
						OFFSET 0.005152 0.064970 0.051349
						CHANNELS 3 Zrotation Yrotation Xrotation
						End Site
						{
							OFFSET 0.000000 0.000000 0.000000
						}
					}
				}
				JOINT LeftShoulder
				{
					OFFSET 0.078845 0.121749 -0.034090
					CHANNELS 3 Zrotation Yrotation Xrotation
					JOINT LeftArm
					{
						OFFSET 0.090977 0.030469 -0.008868
						CHANNELS 3 Zrotation Yrotation Xrotation
						JOINT LeftForeArm
						{
							OFFSET 0.259612 -0.012772 -0.027456
							CHANNELS 3 Zrotation Yrotation Xrotation
							JOINT LeftHand
							{
								OFFSET 0.249234 0.008986 -0.001171
								CHANNELS 3 Zrotation Yrotation Xrotation
								End Site
								{
									OFFSET 0.000000 0.000000 0.000000
								}
							}
						}
					}
				}
				JOINT RightShoulder
				{
					OFFSET -0.081759 0.118833 -0.038615
					CHANNELS 3 Zrotation Yrotation Xrotation
					JOINT RightArm
					{
						OFFSET -0.096012 0.032551 -0.009143
						CHANNELS 3 Zrotation Yrotation Xrotation
						JOINT RightForeArm
						{
							OFFSET -0.253742 -0.013329 -0.021401
							CHANNELS 3 Zrotation Yrotation Xrotation
							JOINT RightHand
							{
								OFFSET -0.255298 0.007772 -0.005559
								CHANNELS 3 Zrotation Yrotation Xrotation
								End Site
								{
									OFFSET 0.000000 0.000000 0.000000
								}
							}
						}
					}
				}
			}
		}
	}
}
MOTION
Frames: 5
Frame Time: 0.050000
0.000000 0.893251 0.000000 -2.482841 -13.317165 14.292402 14.459992 2.752076 -34.001097 -7.731181 2.882634 23.933121 8.219902 16.746050 4.302945 0.000000 0.000000 0.000000 -2.758873 3.098651 -27.691176 9.298097 -0.787592 26.685966 -9.754927 -23.778365 -7.763360 0.000000 0.000000 0.000000 -0.770450 0.219209 31.333862 -3.733040 1.799853 0.655777 -3.574729 1.959872 6.813321 8.207293 -2.108720 -29.311083 0.000000 0.000000 0.000000 -19.915299 -34.525675 19.536030 -20.857948 -42.796568 3.171998 26.592436 -11.718123 -1.949288 0.000000 0.000000 0.000000 15.505647 27.799914 12.774604 37.959409 39.676256 8.086342 -24.790775 21.487126 -3.450632 0.000000 0.000000 0.000000 
-0.007812 0.891153 -0.005069 -2.718776 -13.624630 14.413084 15.553026 3.474263 -36.087567 -8.412521 3.514680 27.103546 8.016873 16.343813 3.975136 0.000000 0.000000 0.000000 -2.527907 3.089821 -27.257519 10.435553 -1.105588 25.199388 -9.538558 -23.152666 -7.648781 0.000000 0.000000 0.000000 0.271852 -0.079562 32.264181 -2.737964 1.371664 1.401482 -4.610031 3.196612 5.620040 8.911060 -1.781323 -32.091279 0.000000 0.000000 0.000000 -22.363740 -35.043147 20.238466 -18.735184 -43.379204 2.665292 26.244442 -10.753090 -1.746514 0.000000 0.000000 0.000000 15.467629 25.108037 11.685834 36.787135 41.889393 8.476402 -27.469471 22.006343 -3.924299 0.000000 0.000000 0.000000 
-0.013947 0.890683 -0.008518 -1.871570 -11.886614 13.568680 14.538716 3.162757 -38.738649 -7.486981 3.431375 31.741744 7.976689 16.359103 5.176064 0.000000 0.000000 0.000000 -3.081119 2.943684 -27.620914 11.592744 -1.637369 26.911701 -9.873602 -24.357266 -9.289349 0.000000 0.000000 0.000000 2.124330 -0.892211 33.659476 -2.822187 1.403505 1.588508 -6.005762 2.783942 4.124676 7.717946 -1.669336 -28.274809 0.000000 0.000000 0.000000 -26.394110 -35.960920 21.879125 -14.532306 -41.703098 1.343357 23.872927 -10.998067 -1.627688 0.000000 0.000000 0.000000 18.133457 26.952812 13.435912 31.283601 40.390829 6.397130 -24.223845 21.435217 -3.248603 0.000000 0.000000 0.000000 
-0.018699 0.890828 -0.009853 -1.703057 -13.066863 13.059641 16.576676 4.540891 -40.893734 -10.039195 4.989039 34.027492 8.573941 17.233003 8.003432 0.000000 0.000000 0.000000 -2.793602 3.293254 -29.296369 11.368880 -1.463360 29.855135 -10.323786 -25.642223 -8.564434 0.000000 0.000000 0.000000 2.323880 -0.816686 34.697669 -3.656614 1.867613 2.584505 -6.047091 3.344788 2.140245 8.706368 -1.782592 -29.661586 0.000000 0.000000 0.000000 -30.199651 -36.300347 23.214998 -13.358263 -40.907775 1.088049 24.908589 -11.594869 -1.825819 0.000000 0.000000 0.000000 19.258707 26.668185 13.580315 29.191788 40.914923 6.026736 -22.506491 22.754003 -3.180599 0.000000 0.000000 0.000000 
-0.021704 0.889984 -0.007706 -1.178704 -13.305089 11.820083 16.941870 4.928704 -41.761804 -10.103129 5.104144 34.671212 7.178308 14.839501 8.197626 0.000000 0.000000 0.000000 -3.687947 3.002496 -28.299080 12.371794 -1.769880 31.070951 -9.737148 -23.858733 -8.766693 0.000000 0.000000 0.000000 2.940823 -0.977898 35.706129 -3.003731 1.640551 4.239404 -7.533756 3.558411 0.548350 8.791647 -1.973739 -27.715618 0.000000 0.000000 0.000000 -33.313628 -35.784190 23.398525 -12.147961 -39.223818 0.822126 26.001236 -13.462742 -2.305103 0.000000 0.000000 0.000000 20.418168 27.037314 14.236892 27.041923 41.584861 5.599162 -21.753824 23.263887 -3.121882 0.000000 0.000000 0.000000 
